<?xml version="1.0" encoding="UTF-8"?> <svg xmlns="http://www.w3.org/2000/svg" xmlns:xlink="http://www.w3.org/1999/xlink" width="2499" height="2499.88" viewBox="0 0 2499 2499.88"><defs><linearGradient id="a" x1="479.69" y1="779.92" x2="1850.89" y2="779.92" gradientTransform="translate(-872.68 -169.84) scale(1.82)" gradientUnits="userSpaceOnUse"><stop offset="0.12" stop-color="#fff" stop-opacity="0"></stop><stop offset="0.25" stop-color="#c0d1d3" stop-opacity="0.15"></stop><stop offset="0.39" stop-color="#91b3b7" stop-opacity="0.31"></stop><stop offset="0.52" stop-color="#6d9fa3" stop-opacity="0.46"></stop><stop offset="0.65" stop-color="#4d9195" stop-opacity="0.6"></stop><stop offset="0.78" stop-color="#30888b" stop-opacity="0.75"></stop><stop offset="0.9" stop-color="#148386" stop-opacity="0.88"></stop><stop offset="1" stop-color="#008184"></stop></linearGradient><linearGradient id="b" x1="478.78" y1="779.92" x2="1851.8" y2="779.92" gradientTransform="translate(-872.68 -169.84) scale(1.82)" gradientUnits="userSpaceOnUse"><stop offset="0" stop-color="#fff" stop-opacity="0"></stop><stop offset="0.15" stop-color="#c0d1d3" stop-opacity="0.15"></stop><stop offset="0.31" stop-color="#91b3b7" stop-opacity="0.31"></stop><stop offset="0.46" stop-color="#6d9fa3" stop-opacity="0.46"></stop><stop offset="0.6" stop-color="#4d9195" stop-opacity="0.6"></stop><stop offset="0.75" stop-color="#30888b" stop-opacity="0.75"></stop><stop offset="0.88" stop-color="#148386" stop-opacity="0.88"></stop><stop offset="1" stop-color="#008184"></stop></linearGradient></defs><title>arduino-ide</title><path d="M2498.09,1249.42C2498.09,1939,1939,2498,1249.59,2498,559.92,2498,.91,1939,.91,1249.42.91,560,559.92.94,1249.59.94c689.48,0,1248.5,559.05,1248.5,1248.48Z" transform="translate(0 -0.09)" fill="#00979d" stroke="#81c9cb" stroke-miterlimit="18.21" stroke-width="1.7"></path><path d="M2498.09,1250.46c0,689.58-559.05,1248.6-1248.5,1248.6C559.92,2499.06.91,1940,.91,1250.46S559.92,2,1249.59,2c689.48,0,1248.5,559,1248.5,1248.49Z" transform="translate(0 -0.09)" stroke-miterlimit="18.21" stroke-width="1.82" opacity="0.5" fill="url(#a)" stroke="url(#b)" style="isolation:isolate"></path><path d="M1726.39,1695.92a485.73,485.73,0,0,1-71.26-5.22c-198.47-28.32-331.17-170.86-405.51-280.44-74.57,109.58-207.27,252.26-405.64,280.54a503,503,0,0,1-71.27,5.08c-123.39,0-239.23-45.93-326.36-129.31-88-84.08-136.49-196.89-136.49-317.19,0-120.46,48.53-233.12,136.62-317.35,87-83.39,203-129.18,326.41-129.18A504.77,504.77,0,0,1,844,807.91c198.38,28.3,331.07,170.85,405.65,280.45,74.35-109.6,207-252.11,405.49-280.45a503.76,503.76,0,0,1,71.15-5.06c123.39,0,239.3,45.9,326.35,129.18,88,84.23,136.47,196.89,136.47,317.35,0,120.3-48.31,233.11-136.35,317.19-87.2,83.38-202.94,129.35-326.33,129.35m-388.89-446.5c38.76,73.82,153.1,258,340,284.78a359.29,359.29,0,0,0,48.88,3.51c167.89,0,304.55-129.31,304.55-288.33s-136.63-288.33-304.67-288.33a339.94,339.94,0,0,0-48.72,3.5c-186.93,26.7-301.27,210.9-340,284.87M772.89,961.09c-168.11,0-304.79,129.3-304.79,288.33s136.62,288.33,304.58,288.33a360.86,360.86,0,0,0,49-3.5c186.9-26.77,301.21-210.86,340-284.79-38.68-73.82-153.09-258.17-340-284.78a328.72,328.72,0,0,0-48.74-3.59" transform="translate(0 -0.09)" fill="#fff"></path><path d="M645.37,1205.76h278v89.57h-278Zm1205.81,0h-94.1v-94.24h-89.87v94.24h-94.06v89.57h94.06v94.22h89.87v-94.22h94.1Z" transform="translate(0 -0.09)" fill="#fff"></path></svg> 